<svg width="33" height="33" viewBox="0 0 33 33" fill="none" xmlns="http://www.w3.org/2000/svg">
<g clip-path="url(#clip0_14_338)">
<path d="M0.547302 0.212769H32.5473V32.2128H0.547302V0.212769Z" fill="url(#paint0_linear_14_338)"/>
<path d="M11.3473 21.4128H21.3473V11.4128H11.3473V21.4128ZM22.1473 11.4128H23.7473V12.2128H22.1473V13.8128H23.7473V14.6128H22.1473V15.8128H23.7473V16.6128H22.1473V18.2128H23.7473V19.0128H22.1473V20.6128H23.7473V21.4128H22.1473V21.4672C22.1471 21.6649 22.0685 21.8545 21.9287 21.9942C21.7889 22.134 21.5994 22.2127 21.4017 22.2128H21.3473V23.8128H20.5473V22.2128H18.9473V23.8128H18.1473V22.2128H16.9473V23.8128H16.1473V22.2128H14.5473V23.8128H13.7473V22.2128H12.1473V23.8128H11.3473V22.2128H11.2929C11.0952 22.2127 10.9057 22.134 10.7659 21.9942C10.6261 21.8545 10.5475 21.6649 10.5473 21.4672V21.4128H9.34729V20.6128H10.5473V19.0128H9.34729V18.2128H10.5473V16.6128H9.34729V15.8128H10.5473V14.6128H9.34729V13.8128H10.5473V12.2128H9.34729V11.4128H10.5473V11.3584C10.5475 11.1607 10.6261 10.9712 10.7659 10.8314C10.9057 10.6916 11.0952 10.613 11.2929 10.6128H11.3473V9.01282H12.1473V10.6128H13.7473V9.01282H14.5473V10.6128H16.1473V9.01282H16.9473V10.6128H18.1473V9.01282H18.9473V10.6128H20.5473V9.01282H21.3473V10.6128H21.4017C21.5994 10.613 21.7889 10.6916 21.9287 10.8314C22.0685 10.9712 22.1471 11.1607 22.1473 11.3584V11.4128ZM16.9473 26.5632C16.9472 26.5763 16.9419 26.5889 16.9326 26.5982C16.9234 26.6075 16.9108 26.6127 16.8977 26.6128H6.19691C6.18377 26.6128 6.17119 26.6075 6.1619 26.5982C6.1526 26.5889 6.14736 26.5763 6.14729 26.5632V15.8624C6.14739 15.8493 6.15265 15.8367 6.16193 15.8275C6.17122 15.8182 6.18378 15.8129 6.19691 15.8128H8.54729V15.0128H6.19691C5.97166 15.0131 5.75571 15.1027 5.59643 15.262C5.43715 15.4212 5.34755 15.6372 5.34729 15.8624V26.5632C5.34755 26.7884 5.43715 27.0044 5.59643 27.1637C5.75571 27.323 5.97166 27.4126 6.19691 27.4128H16.8977C17.1229 27.4126 17.3389 27.323 17.4981 27.1637C17.6574 27.0044 17.747 26.7884 17.7473 26.5632V24.6128H16.9473V26.5632ZM27.7473 5.86244V16.5632C27.747 16.7884 27.6574 17.0044 27.4981 17.1637C27.3389 17.323 27.1229 17.4126 26.8977 17.4128H24.5473V16.6128H26.8977C26.9108 16.6127 26.9234 16.6075 26.9326 16.5982C26.9419 16.5889 26.9472 16.5763 26.9473 16.5632V5.86244C26.9472 5.8493 26.942 5.83672 26.9327 5.82742C26.9234 5.81813 26.9108 5.81288 26.8977 5.81282H16.1969C16.1838 5.81288 16.1712 5.81813 16.1619 5.82742C16.1526 5.83672 16.1474 5.8493 16.1473 5.86244V8.21282H15.3473V5.86244C15.3476 5.63719 15.4372 5.42124 15.5964 5.26196C15.7557 5.10268 15.9717 5.01308 16.1969 5.01282H26.8977C27.1229 5.01308 27.3389 5.10268 27.4981 5.26196C27.6574 5.42124 27.747 5.63719 27.7473 5.86244Z" fill="white"/>
</g>
<defs>
<linearGradient id="paint0_linear_14_338" x1="0.547302" y1="32.2128" x2="32.5473" y2="0.212769" gradientUnits="userSpaceOnUse">
<stop stop-color="#C8511B"/>
<stop offset="1" stop-color="#FF9900"/>
</linearGradient>
<clipPath id="clip0_14_338">
<rect width="32" height="32" fill="white" transform="translate(0.547302 0.212769)"/>
</clipPath>
</defs>
</svg>
