<svg width="33" height="33" viewBox="0 0 33 33" fill="none" xmlns="http://www.w3.org/2000/svg">
<g clip-path="url(#clip0_14_341)">
<path d="M0.547302 0.212769H32.5473V32.2128H0.547302V0.212769Z" fill="url(#paint0_linear_14_341)"/>
<path d="M11.7503 26.6128H6.78357L12.2767 15.1312L14.7657 20.2552L11.7503 26.6128ZM12.6352 14.0341C12.6022 13.9665 12.5509 13.9095 12.4871 13.8696C12.4233 13.8297 12.3496 13.8085 12.2743 13.8084H12.2731C12.1976 13.8085 12.1237 13.8299 12.0599 13.8702C11.9961 13.9104 11.9449 13.9679 11.9123 14.0359L5.78645 26.8406C5.75738 26.9016 5.74425 26.969 5.74827 27.0365C5.75229 27.104 5.77333 27.1694 5.80943 27.2265C5.84554 27.2837 5.89553 27.3308 5.95474 27.3634C6.01396 27.396 6.08047 27.4131 6.14807 27.4131L12.0041 27.4129C12.0799 27.413 12.1543 27.3915 12.2184 27.351C12.2826 27.3105 12.334 27.2527 12.3666 27.1842L15.5728 20.4242C15.5984 20.3702 15.6116 20.3111 15.6112 20.2513C15.6109 20.1916 15.5971 20.1326 15.5708 20.0789L12.6352 14.0341ZM26.5454 26.6128H21.6108L13.6941 10.0408C13.6614 9.97248 13.6101 9.91479 13.546 9.87444C13.4819 9.83408 13.4077 9.81272 13.3319 9.81282H10.1032L10.1069 5.81282H16.4352L24.3154 22.3844C24.3481 22.4528 24.3994 22.5106 24.4635 22.551C24.5276 22.5914 24.6018 22.6128 24.6776 22.6128H26.5454V26.6128ZM26.9464 21.8128H24.9313L17.0511 5.24119C17.0184 5.17276 16.967 5.11499 16.9029 5.07457C16.8387 5.03415 16.7644 5.01274 16.6886 5.01282H9.70645C9.60031 5.01275 9.49849 5.05479 9.42331 5.12971C9.34813 5.20463 9.30574 5.30631 9.30545 5.41244L9.30107 10.2124C9.30107 10.3188 9.3427 10.4204 9.41857 10.4956C9.49357 10.5708 9.59532 10.6128 9.70195 10.6128H13.0791L20.9962 27.1848C21.0288 27.2531 21.0801 27.3107 21.1441 27.3511C21.2081 27.3914 21.2822 27.4128 21.3578 27.4128H26.9464C26.999 27.4129 27.0511 27.4026 27.0997 27.3825C27.1483 27.3625 27.1925 27.333 27.2297 27.2959C27.267 27.2587 27.2965 27.2146 27.3167 27.166C27.3369 27.1175 27.3473 27.0654 27.3473 27.0128V22.2128C27.3473 21.9921 27.1681 21.8128 26.9464 21.8128Z" fill="white"/>
</g>
<defs>
<linearGradient id="paint0_linear_14_341" x1="0.547302" y1="32.2128" x2="32.5473" y2="0.212769" gradientUnits="userSpaceOnUse">
<stop stop-color="#C8511B"/>
<stop offset="1" stop-color="#FF9900"/>
</linearGradient>
<clipPath id="clip0_14_341">
<rect width="32" height="32" fill="white" transform="translate(0.547302 0.212769)"/>
</clipPath>
</defs>
</svg>
