<svg width="33" height="33" viewBox="0 0 33 33" fill="none" xmlns="http://www.w3.org/2000/svg">
<g clip-path="url(#clip0_14_335)">
<path d="M0.547302 0.212769H32.5473V32.2128H0.547302V0.212769Z" fill="url(#paint0_linear_14_335)"/>
<path d="M24.8817 17.3698L25.0353 16.2883C26.4516 17.1367 26.4701 17.4871 26.4697 17.4967C26.4672 17.4987 26.2257 17.7003 24.8817 17.3698ZM24.1044 17.1538C21.6564 16.4131 18.2473 14.8491 16.8677 14.1971C16.8677 14.1914 16.8693 14.1863 16.8693 14.1807C16.8693 13.6507 16.4381 13.2194 15.9077 13.2194C15.3781 13.2194 14.9468 13.6507 14.9468 14.1807C14.9468 14.7107 15.3781 15.1419 15.9077 15.1419C16.1404 15.1419 16.3517 15.0551 16.5184 14.9169C18.1417 15.6854 21.5244 17.2267 23.9904 17.9547L23.0153 24.8371C23.0124 24.8558 23.0113 24.8746 23.0113 24.8934C23.0113 25.4995 20.3284 26.6127 15.9448 26.6127C11.5148 26.6127 8.80357 25.4995 8.80357 24.8934C8.80359 24.8753 8.80243 24.8571 8.80007 24.8391L6.76256 9.95632C8.52606 11.1703 12.3193 11.8126 15.9473 11.8126C19.5697 11.8126 23.3564 11.1726 25.1236 9.96232L24.1044 17.1538ZM6.54731 8.40382C6.57606 7.87757 9.60081 5.81257 15.9473 5.81257C22.2928 5.81257 25.3181 7.87707 25.3473 8.40382V8.58345C24.9993 9.76382 21.0793 11.0127 15.9473 11.0127C10.8064 11.0127 6.88444 9.75982 6.54731 8.57782V8.40382ZM26.1473 8.41257C26.1473 7.0267 22.1736 5.01257 15.9473 5.01257C9.72081 5.01257 5.74731 7.0267 5.74731 8.41257L5.78481 8.71432L8.00406 24.9238C8.05731 26.7367 12.8916 27.4126 15.9448 27.4126C19.7336 27.4126 23.7588 26.5414 23.8108 24.9251L24.7693 18.1663C25.3024 18.2938 25.7413 18.3591 26.0937 18.3591C26.5668 18.3591 26.8868 18.2434 27.0808 18.0123C27.2401 17.8227 27.3008 17.5931 27.2553 17.3486C27.1516 16.7951 26.4944 16.1983 25.1561 15.4347L26.1064 8.72982L26.1473 8.4127V8.41257Z" fill="white"/>
</g>
<defs>
<linearGradient id="paint0_linear_14_335" x1="0.547302" y1="32.2128" x2="32.5473" y2="0.212769" gradientUnits="userSpaceOnUse">
<stop stop-color="#1B660F"/>
<stop offset="1" stop-color="#6CAE3E"/>
</linearGradient>
<clipPath id="clip0_14_335">
<rect width="32" height="32" fill="white" transform="translate(0.547302 0.212769)"/>
</clipPath>
</defs>
</svg>
