<svg width="29" height="33" viewBox="0 0 29 33" fill="none" xmlns="http://www.w3.org/2000/svg">
<g clip-path="url(#clip0_14_347)">
<path d="M14.6012 0.218018L28.7254 8.20754V24.1918L14.6012 32.1813L0.477112 24.1918V8.20754L14.6012 0.218018Z" fill="white"/>
<path d="M26.2043 23.6375L15.0703 29.9426V25.0392L22.0098 21.2178L26.2043 23.6375ZM26.9665 22.95V9.77456L22.8945 12.1249V20.5994L26.9665 22.95ZM2.95545 23.6374L14.0896 29.9374V25.0339L7.1501 21.2178L2.95545 23.6375V23.6374ZM2.1933 22.95V9.77456L6.26535 12.1249V20.5994L2.1933 22.95ZM2.66778 8.92182L14.0896 2.4619V7.20563L6.77173 11.2296L6.71302 11.2616L2.66778 8.92171V8.92182ZM26.4868 8.92182L15.0703 2.46179V7.20552L22.3829 11.2348L22.4415 11.2668L26.4868 8.9216V8.92182Z" fill="#8ED6FB"/>
<path d="M14.0896 23.92L7.246 20.1517V12.6953L14.0896 16.6448V23.92ZM15.0703 23.92L21.9139 20.1571V12.6953L15.0703 16.6448V23.92ZM7.70437 11.8318L14.58 8.05298L21.45 11.8318L14.58 15.7973L7.70437 11.8318Z" fill="#1C78C0"/>
</g>
<defs>
<clipPath id="clip0_14_347">
<rect width="28.2483" height="32" fill="white" transform="translate(0.477112 0.212769)"/>
</clipPath>
</defs>
</svg>
