<svg width="54" height="33" viewBox="0 0 54 33" fill="none" xmlns="http://www.w3.org/2000/svg">
<g clip-path="url(#clip0_14_312)">
<path d="M15.1456 11.8077C15.1456 12.4638 15.2168 12.9957 15.3408 13.3857C15.4982 13.8246 15.6878 14.2512 15.908 14.6622C15.9967 14.804 16.032 14.9458 16.032 15.07C16.032 15.2472 15.9258 15.4245 15.6953 15.6019L14.5784 16.3465C14.4189 16.4529 14.2593 16.506 14.1173 16.506C13.9401 16.506 13.7627 16.4174 13.5854 16.2578C13.3465 16.0011 13.1329 15.722 12.9473 15.4245C12.7699 15.1234 12.5926 14.7862 12.3976 14.3786C11.0147 16.0095 9.2771 16.8252 7.18518 16.8252C5.69603 16.8252 4.50806 16.3996 3.63924 15.5488C2.77064 14.6975 2.32745 13.5629 2.32745 12.1446C2.32745 10.6377 2.85932 9.41438 3.94084 8.49245C5.02215 7.57051 6.45838 7.10955 8.28447 7.10955C8.88725 7.10955 9.50779 7.16267 10.1637 7.25135C10.8198 7.34003 11.4935 7.48183 12.2027 7.64142V6.34719C12.2027 4.99964 11.9189 4.06013 11.3692 3.51049C10.802 2.96084 9.84453 2.6948 8.4794 2.6948C7.85885 2.6948 7.22074 2.76591 6.56463 2.92549C5.90873 3.08487 5.27041 3.28 4.64986 3.52826C4.36625 3.65229 4.15355 3.72319 4.02931 3.75875C3.90528 3.7943 3.8166 3.81187 3.7457 3.81187C3.49744 3.81187 3.37341 3.63451 3.37341 3.26222V2.39341C3.37341 2.10981 3.40897 1.8971 3.49744 1.77307C3.58612 1.64884 3.7457 1.52481 3.99396 1.40079C4.61451 1.08162 5.35909 0.815584 6.22769 0.602878C7.09671 0.372395 8.01864 0.266146 8.9937 0.266146C11.1036 0.266146 12.6461 0.744682 13.6389 1.70217C14.614 2.65945 15.1105 4.11326 15.1105 6.06358V11.8077H15.1461H15.1456ZM7.94753 14.5026C8.53274 14.5026 9.13551 14.3963 9.77362 14.1834C10.412 13.9707 10.9794 13.5807 11.4579 13.0488C11.7417 12.7121 11.9544 12.3398 12.0607 11.9141C12.1671 11.4887 12.238 10.9744 12.238 10.3717V9.62709C11.7004 9.49622 11.1558 9.3956 10.6069 9.3257C10.0541 9.2555 9.49755 9.21994 8.94037 9.21924C7.75239 9.21924 6.88379 9.44973 6.2988 9.92847C5.7136 10.4072 5.42999 11.0809 5.42999 11.9673C5.42999 12.8005 5.6427 13.4211 6.08589 13.8467C6.51151 14.2899 7.13206 14.5026 7.94753 14.5026ZM22.1842 16.4174C21.865 16.4174 21.6523 16.3642 21.5105 16.24C21.3687 16.1338 21.2445 15.8855 21.1382 15.5488L16.9719 1.84398C16.8653 1.48926 16.8122 1.25877 16.8122 1.13475C16.8122 0.85114 16.954 0.691349 17.2378 0.691349H18.9752C19.3119 0.691349 19.5426 0.744682 19.6666 0.868708C19.8084 0.975166 19.9149 1.22343 20.0212 1.56016L22.9997 13.297L25.7655 1.56016C25.8541 1.20565 25.9606 0.975166 26.1022 0.868708C26.2442 0.76246 26.4925 0.691558 26.8116 0.691558H28.2299C28.5666 0.691558 28.7973 0.744682 28.9389 0.868708C29.0809 0.975166 29.2049 1.22343 29.2758 1.56016L32.0772 13.4389L35.1442 1.56016C35.2504 1.20565 35.3747 0.975166 35.4987 0.868708C35.6405 0.76246 35.871 0.691558 36.1901 0.691558H37.8389C38.1227 0.691558 38.2823 0.833362 38.2823 1.13475C38.2823 1.22343 38.2645 1.31211 38.2467 1.41836C38.2289 1.52481 38.1936 1.66662 38.1227 1.86175L33.8498 15.5663C33.7435 15.921 33.6195 16.1515 33.4775 16.2578C33.3357 16.3642 33.1052 16.4351 32.804 16.4351H31.2793C30.9424 16.4351 30.7119 16.382 30.5699 16.2578C30.4281 16.1338 30.304 15.9033 30.2331 15.5488L27.4849 4.11326L24.7546 15.5308C24.6662 15.8855 24.5597 16.116 24.4179 16.24C24.2761 16.3642 24.0278 16.4174 23.7089 16.4174H22.184H22.1842ZM44.9663 16.8961C44.0444 16.8961 43.1224 16.7896 42.2361 16.5769C41.3495 16.3642 40.6582 16.1335 40.1973 15.8679C39.9134 15.7081 39.7183 15.531 39.6476 15.3714C39.5786 15.2149 39.5423 15.0459 39.5412 14.8749V13.9707C39.5412 13.5984 39.683 13.4211 39.949 13.4211C40.0576 13.4215 40.1654 13.4395 40.2682 13.4744C40.3744 13.51 40.534 13.5807 40.7114 13.6516C41.3375 13.927 41.9913 14.135 42.6615 14.2721C43.3559 14.413 44.0627 14.4843 44.7714 14.4848C45.8882 14.4848 46.757 14.2899 47.3598 13.8998C47.9626 13.5098 48.2818 12.9425 48.2818 12.2155C48.2818 11.7192 48.1222 11.3114 47.803 10.9744C47.4838 10.6377 46.8811 10.3363 46.0125 10.0525L43.4416 9.2548C42.1474 8.84696 41.1901 8.24419 40.6049 7.44628C40.0199 6.66615 39.7185 5.79755 39.7185 4.87561C39.7185 4.13104 39.8781 3.47493 40.1973 2.90751C40.5162 2.34029 40.9418 1.84398 41.4737 1.45391C42.0056 1.04607 42.6083 0.744682 43.3176 0.531976C44.0266 0.319271 44.7712 0.230591 45.5513 0.230591C45.9414 0.230591 46.3492 0.248369 46.7393 0.301493C47.1471 0.354617 47.5194 0.425519 47.8917 0.496421C48.2462 0.585101 48.5831 0.67378 48.9023 0.780238C49.2215 0.886486 49.4695 0.992944 49.6469 1.09919C49.8951 1.24121 50.0723 1.38301 50.1787 1.54259C50.2852 1.68439 50.3383 1.87932 50.3383 2.12758V2.96084C50.3383 3.33313 50.1965 3.52826 49.9305 3.52826C49.7887 3.52826 49.5582 3.45715 49.257 3.31535C48.2462 2.85438 47.1116 2.6239 45.8529 2.6239C44.8423 2.6239 44.0444 2.78348 43.4947 3.12042C42.9453 3.45715 42.6615 3.97145 42.6615 4.69825C42.6615 5.19477 42.8388 5.62019 43.1933 5.95713C43.5481 6.29386 44.204 6.6308 45.1437 6.93219L47.6612 7.73009C48.9376 8.13794 49.8596 8.70515 50.4092 9.43195C50.9589 10.159 51.2249 10.9922 51.2249 11.9141C51.2249 12.6765 51.0651 13.368 50.7637 13.9707C50.4448 14.5735 50.0192 15.1054 49.4695 15.531C48.9199 15.9742 48.264 16.2933 47.5016 16.5238C46.7037 16.7721 45.8705 16.8961 44.9663 16.8961Z" fill="#F4F4F4"/>
<path d="M48.3171 25.5124C42.4843 29.8207 34.0095 32.1078 26.723 32.1078C16.5108 32.1078 7.30942 28.3313 0.359561 22.0552C-0.190087 21.5588 0.306227 20.8852 0.962123 21.275C8.4794 25.6366 17.7519 28.2782 27.3435 28.2782C33.8146 28.2782 40.9241 26.9309 47.4663 24.1651C48.4413 23.7217 49.2746 24.8034 48.3171 25.5124ZM50.7462 22.7466C50.0016 21.7893 45.8173 22.2856 43.9203 22.5161C43.3529 22.5872 43.2642 22.0907 43.7785 21.7184C47.1116 19.378 52.59 20.0519 53.2282 20.8318C53.8665 21.6297 53.0508 27.108 49.9305 29.732C49.452 30.1399 48.991 29.9272 49.2037 29.3953C49.9127 27.6399 51.4907 23.6863 50.7462 22.7466Z" fill="#FF9900"/>
</g>
<defs>
<clipPath id="clip0_14_312">
<rect width="53.5425" height="32" fill="white" transform="translate(0.00482178 0.212769)"/>
</clipPath>
</defs>
</svg>
