<svg width="33" height="32" viewBox="0 0 33 32" fill="none" xmlns="http://www.w3.org/2000/svg">
<g clip-path="url(#clip0_21_122)">
<path d="M25.6041 15.3059C25.6041 13.6099 24.9941 12.4359 24.4721 11.5219L24.3121 11.2619C23.6781 10.2419 23.1241 9.34594 23.1241 8.30194C23.1241 7.04194 24.0801 5.86594 25.4281 5.86594C25.4681 5.86594 25.5061 5.86994 25.5441 5.87194L25.6061 5.87794C23.0785 3.55622 19.7703 2.26976 16.3381 2.27394C14.0635 2.27277 11.8243 2.83758 9.82227 3.91748C7.82029 4.99737 6.11846 6.55842 4.87013 8.45994C5.19013 8.46994 5.49613 8.47794 5.75413 8.47794C7.18813 8.47794 9.41013 8.30394 9.41013 8.30394C10.1501 8.25994 10.2381 9.34594 9.49813 9.43394C9.49813 9.43394 8.75613 9.52194 7.92813 9.56394L12.9281 24.4319L15.9281 15.4199L13.7881 9.56194C13.0501 9.51794 12.3501 9.43194 12.3501 9.43194C11.6101 9.38794 11.6981 8.25594 12.4361 8.29994C12.4361 8.29994 14.7041 8.47394 16.0521 8.47394C17.4881 8.47394 19.7121 8.29994 19.7121 8.29994C20.4521 8.25594 20.5381 9.34394 19.7981 9.43194C19.7981 9.43194 19.0541 9.51794 18.2281 9.56194L23.1881 24.3159L24.5561 19.7419L24.6641 19.3959C25.2041 17.6759 25.6021 16.4059 25.6021 15.3039L25.6041 15.3059ZM2.61213 15.9999C2.612 18.5774 3.33749 21.1029 4.70559 23.2873C6.07369 25.4718 8.02913 27.2269 10.3481 28.3519L3.79813 10.4119C3.01379 12.1703 2.60964 14.0745 2.61213 15.9999Z" fill="#F4F4F4"/>
<path d="M12.4601 29.1661L16.5801 17.2001L20.7981 28.7601C20.8261 28.8261 20.8581 28.8881 20.8961 28.9481C18.177 29.906 15.2251 29.9823 12.4601 29.1661ZM28.3801 9.41406C28.4401 9.85206 28.4741 10.3201 28.4741 10.8261C28.4741 12.2181 28.2141 13.7841 27.4301 15.7421L23.2381 27.8621C26.3316 26.0648 28.6006 23.1303 29.5615 19.6841C30.5224 16.2379 30.0992 12.5527 28.3821 9.41406H28.3801Z" fill="#F4F4F4"/>
<path fill-rule="evenodd" clip-rule="evenodd" d="M0.338135 16C0.338135 7.178 7.51614 0 16.3381 0C25.1581 0 32.3381 7.178 32.3381 16C32.3381 24.822 25.1581 32 16.3381 32C7.51614 32 0.338135 24.822 0.338135 16ZM1.07213 16C1.07213 24.418 7.92013 31.266 16.3381 31.266C24.7541 31.266 31.6021 24.418 31.6021 16C31.6021 7.58 24.7541 0.734 16.3381 0.734C7.91813 0.734 1.07213 7.58 1.07213 16Z" fill="#F4F4F4"/>
</g>
<defs>
<clipPath id="clip0_21_122">
<rect width="32" height="32" fill="white" transform="translate(0.338135)"/>
</clipPath>
</defs>
</svg>
