<svg width="33" height="32" viewBox="0 0 33 32" fill="none" xmlns="http://www.w3.org/2000/svg">
<path d="M23.5382 16C21.6286 16 19.7973 16.7585 18.447 18.1088C17.0967 19.459 16.3382 21.2904 16.3382 23.2C16.3382 25.1095 17.0967 26.9409 18.447 28.2911C19.7973 29.6414 21.6286 30.4 23.5382 30.4C25.4477 30.4 27.2791 29.6414 28.6293 28.2911C29.9796 26.9409 30.7382 25.1095 30.7382 23.2C30.7382 21.2904 29.9796 19.459 28.6293 18.1088C27.2791 16.7585 25.4477 16 23.5382 16ZM17.9382 23.2C17.9382 22.16 18.2278 21.1405 18.7745 20.2559C19.3213 19.3712 20.1036 18.6563 21.0338 18.1912C21.964 17.7261 23.0053 17.5292 24.0411 17.6226C25.0769 17.716 26.0662 18.096 26.8982 18.72L19.0582 26.56C18.3293 25.5916 17.9361 24.412 17.9382 23.2ZM23.5382 28.8C22.3262 28.802 21.1465 28.4088 20.1782 27.68L28.0182 19.84C28.6422 20.6719 29.0222 21.6613 29.1155 22.697C29.2089 23.7328 29.0121 24.7742 28.547 25.7043C28.0819 26.6345 27.3669 27.4168 26.4823 27.9636C25.5976 28.5103 24.5782 28.8 23.5382 28.8ZM27.5382 5.59995C27.5382 5.38778 27.4539 5.1843 27.3039 5.03427C27.1538 4.88424 26.9504 4.79995 26.7382 4.79995C26.526 4.79995 26.3225 4.88424 26.1725 5.03427C26.0225 5.1843 25.9382 5.38778 25.9382 5.59995V8.79995C25.9382 9.43647 25.6853 10.0469 25.2352 10.497C24.7851 10.9471 24.1747 11.2 23.5382 11.2H22.7382C22.7386 10.1171 22.3729 9.06594 21.7005 8.21719C21.0281 7.36844 20.0884 6.772 19.0342 6.52475C19.3638 6.00955 19.5398 5.41115 19.5382 4.79995V3.99995C19.5382 3.78778 19.4539 3.5843 19.3039 3.43427C19.1538 3.28424 18.9504 3.19995 18.7382 3.19995C18.526 3.19995 18.3225 3.28424 18.1725 3.43427C18.0225 3.5843 17.9382 3.78778 17.9382 3.99995V4.79995C17.9382 5.2243 17.7696 5.63126 17.4695 5.93132C17.1695 6.23138 16.7625 6.39995 16.3382 6.39995C15.9138 6.39995 15.5069 6.23138 15.2068 5.93132C14.9067 5.63126 14.7382 5.2243 14.7382 4.79995V3.99995C14.7382 3.78778 14.6539 3.5843 14.5039 3.43427C14.3538 3.28424 14.1504 3.19995 13.9382 3.19995C13.726 3.19995 13.5225 3.28424 13.3725 3.43427C13.2225 3.5843 13.1382 3.78778 13.1382 3.99995V4.79995C13.138 5.41122 13.3129 6.00976 13.6422 6.52475C12.5879 6.772 11.6483 7.36844 10.9759 8.21719C10.3034 9.06594 9.93773 10.1171 9.93818 11.2H9.13818C8.50166 11.2 7.89121 10.9471 7.44112 10.497C6.99103 10.0469 6.73818 9.43647 6.73818 8.79995V5.59995C6.73818 5.38778 6.65389 5.1843 6.50386 5.03427C6.35383 4.88424 6.15035 4.79995 5.93818 4.79995C5.726 4.79995 5.52252 4.88424 5.37249 5.03427C5.22246 5.1843 5.13818 5.38778 5.13818 5.59995V8.79995C5.13818 9.86082 5.5596 10.8782 6.30975 11.6284C7.0599 12.3785 8.07731 12.8 9.13818 12.8H9.93818V15.2H4.33818C4.126 15.2 3.92252 15.2842 3.77249 15.4343C3.62246 15.5843 3.53818 15.7878 3.53818 16C3.53818 16.2121 3.62246 16.4156 3.77249 16.5656C3.92252 16.7157 4.126 16.8 4.33818 16.8H9.93818V19.2H9.13818C8.07731 19.2 7.0599 19.6214 6.30975 20.3715C5.5596 21.1217 5.13818 22.1391 5.13818 23.2V26.4C5.13818 26.6121 5.22246 26.8156 5.37249 26.9656C5.52252 27.1157 5.726 27.2 5.93818 27.2C6.15035 27.2 6.35383 27.1157 6.50386 26.9656C6.65389 26.8156 6.73818 26.6121 6.73818 26.4V23.2C6.73818 22.5634 6.99103 21.953 7.44112 21.5029C7.89121 21.0528 8.50166 20.8 9.13818 20.8H9.93818C9.94134 22.3787 10.5299 23.9001 11.5901 25.0699C12.6502 26.2397 14.1066 26.9747 15.6774 27.1328C15.0612 25.9133 14.7395 24.5663 14.7382 23.2C14.7412 21.0058 15.563 18.8917 17.0427 17.2715C18.5223 15.6513 20.5533 14.6416 22.7382 14.44V12.8H23.5382C24.599 12.8 25.6165 12.3785 26.3666 11.6284C27.1168 10.8782 27.5382 9.86082 27.5382 8.79995V5.59995Z" fill="#FF7262"/>
</svg>
