<svg width="31" height="33" viewBox="0 0 31 33" fill="none" xmlns="http://www.w3.org/2000/svg">
<g clip-path="url(#clip0_21_309)">
<path d="M22.2869 21.1033C26.0779 19.0218 28.9517 17.4357 29.1994 17.3124C29.9918 16.891 30.8101 15.7757 29.1994 14.9094C28.6793 14.6369 25.8793 13.1002 22.2869 11.1184L17.3068 16.1479L22.2869 21.1032V21.1033Z" fill="#FFD900"/>
<path d="M17.3068 16.1479L1.44965 32.1296C1.82185 32.1789 2.24205 32.0802 2.73747 31.8079C3.77759 31.2385 14.8038 25.217 22.2869 21.1046L17.3068 16.1479Z" fill="#F43249"/>
<path d="M17.3068 16.1479L22.2869 11.1432C22.2869 11.1432 3.85281 1.08295 2.73749 0.48908C2.31728 0.240204 1.84639 0.166277 1.42502 0.240204L17.3068 16.1479Z" fill="#00EE76"/>
<path d="M17.3068 16.148L1.425 0.240234C0.780449 0.389256 0.235748 0.958716 0.235748 2.12333V30.2465C0.235748 31.3125 0.657237 32.0802 1.44965 32.1543L17.3068 16.148Z" fill="#00D3FF"/>
</g>
<defs>
<clipPath id="clip0_21_309">
<rect width="29.8978" height="32" fill="white" transform="translate(0.235748 0.212891)"/>
</clipPath>
</defs>
</svg>
