<svg width="33" height="33" viewBox="0 0 33 33" fill="none" xmlns="http://www.w3.org/2000/svg">
<g clip-path="url(#clip0_21_306)">
<path d="M7.24372 0.212891H25.2277C29.0982 0.212891 32.2357 3.35039 32.2357 7.22089V25.2049C32.2357 29.0754 29.0982 32.2129 25.2277 32.2129H7.24372C3.37322 32.2129 0.235718 29.0754 0.235718 25.2049V7.22089C0.235718 3.35039 3.37322 0.212891 7.24372 0.212891Z" fill="url(#paint0_linear_21_306)"/>
<path d="M10.491 23.4392L10.494 23.4402L9.39984 25.3352C9.00046 26.027 8.11596 26.264 7.42421 25.8646C6.73259 25.4652 6.49546 24.5807 6.89484 23.889L7.70084 22.493L7.77821 22.359C7.91634 22.1605 8.25721 21.8177 8.93909 21.8822C8.93909 21.8822 10.5437 22.0563 10.6598 22.8903C10.6598 22.8903 10.6756 23.1647 10.491 23.4392ZM26.0088 18.5992H22.5971C22.3647 18.5836 22.2633 18.5006 22.2233 18.4523L22.2208 18.448L18.5687 12.1222L18.564 12.1253L18.345 11.8113C17.986 11.2623 17.416 12.6663 17.416 12.6663C16.7353 14.2308 17.5126 16.0095 17.7835 16.5471L22.8562 25.3333C23.2555 26.025 24.14 26.2621 24.8318 25.8626C25.5235 25.4632 25.7606 24.5787 25.3611 23.887L24.0927 21.69C24.0681 21.6367 24.0253 21.4922 24.2855 21.4916H26.0088C26.8076 21.4916 27.4551 20.8441 27.4551 20.0453C27.4551 19.2466 26.8076 18.5991 26.0088 18.5991V18.5992ZM19.3821 20.5652C19.3821 20.5652 19.5642 21.4916 18.8596 21.4916H6.24721C5.44846 21.4916 4.80096 20.8441 4.80096 20.0453C4.80096 19.2466 5.44846 18.5991 6.24721 18.5991H9.48971C10.0132 18.5688 10.1372 18.2666 10.1372 18.2666L10.1402 18.2681L14.3727 10.9371L14.3715 10.9368C14.4486 10.7952 14.3843 10.6613 14.3732 10.6402L12.9753 8.2191C12.576 7.52747 12.813 6.64285 13.5047 6.2436C14.1965 5.84422 15.081 6.0811 15.4803 6.77285L16.1286 7.89572L16.7757 6.77485C17.1751 6.08322 18.0596 5.8461 18.7513 6.2456C19.4431 6.64497 19.6801 7.52935 19.2807 8.2211L13.391 18.4223C13.3652 18.4845 13.3573 18.582 13.549 18.5991H17.0695L17.0702 18.6335C17.0702 18.6335 19.105 18.6651 19.3821 20.5652Z" fill="white"/>
</g>
<defs>
<linearGradient id="paint0_linear_21_306" x1="16.2357" y1="0.212891" x2="16.2357" y2="32.2129" gradientUnits="userSpaceOnUse">
<stop stop-color="#17C9FB"/>
<stop offset="1" stop-color="#1A74E8"/>
</linearGradient>
<clipPath id="clip0_21_306">
<rect width="32" height="32" fill="white" transform="translate(0.235718 0.212891)"/>
</clipPath>
</defs>
</svg>
