<svg width="33" height="33" viewBox="0 0 33 33" fill="none" xmlns="http://www.w3.org/2000/svg">
<g clip-path="url(#clip0_14_321)">
<path d="M16.2679 0.212769C12.0254 0.212769 7.95288 1.89952 4.95538 4.89902C1.95479 7.89971 0.268714 11.9692 0.267883 16.2128C0.267883 20.4545 1.95538 24.527 4.95538 27.5265C7.95288 30.526 12.0254 32.2128 16.2679 32.2128C20.5104 32.2128 24.5829 30.526 27.5804 27.5265C30.5804 24.527 32.2679 20.4545 32.2679 16.2128C32.2679 11.971 30.5804 7.89852 27.5804 4.89902C24.5829 1.89952 20.5104 0.212769 16.2679 0.212769Z" fill="url(#paint0_linear_14_321)"/>
<path d="M7.51038 16.0438C12.1754 14.0118 15.2854 12.6721 16.8404 12.0248C21.2854 10.1766 22.2079 9.85557 22.8104 9.8447C22.9429 9.84257 23.2379 9.87532 23.4304 10.0309C23.5904 10.1622 23.6354 10.3397 23.6579 10.4643C23.6779 10.5888 23.7054 10.8726 23.6829 11.0941C23.4429 13.6241 22.4004 19.7636 21.8704 22.5973C21.6479 23.7963 21.2054 24.1983 20.7779 24.2376C19.8479 24.3231 19.1429 23.6236 18.2429 23.0338C16.8354 22.1106 16.0404 21.5361 14.6729 20.6353C13.0929 19.5943 14.1179 19.0221 15.0179 18.0871C15.2529 17.8423 19.3479 14.1186 19.4254 13.7808C19.4354 13.7386 19.4454 13.5811 19.3504 13.4981C19.2579 13.4148 19.1204 13.4433 19.0204 13.4658C18.8779 13.4978 16.6304 14.9848 12.2704 17.9266C11.6329 18.3651 11.0554 18.5788 10.5354 18.5676C9.96538 18.5553 8.86538 18.2446 8.04788 17.9791C7.04788 17.6533 6.25038 17.4811 6.32038 16.9278C6.35538 16.6398 6.75288 16.3451 7.51038 16.0438Z" fill="white"/>
<path d="M18.7679 29.4628H22.5179M24.7679 31.7128V25.7128H27.0179C27.4157 25.7128 27.7972 25.8708 28.0785 26.1521C28.3598 26.4334 28.5179 26.8149 28.5179 27.2128V27.9628C28.5179 28.3606 28.3598 28.7421 28.0785 29.0234C27.7972 29.3047 27.4157 29.4628 27.0179 29.4628H24.7679M30.7679 25.7128V31.7128M22.5179 31.7128V27.5878C22.5179 27.0905 22.3203 26.6136 21.9687 26.2619C21.6171 25.9103 21.1402 25.7128 20.6429 25.7128C20.1456 25.7128 19.6687 25.9103 19.3171 26.2619C18.9654 26.6136 18.7679 27.0905 18.7679 27.5878V31.7128" stroke="#F4F4F4" stroke-linecap="round" stroke-linejoin="round"/>
</g>
<defs>
<linearGradient id="paint0_linear_14_321" x1="16.2679" y1="0.212769" x2="16.2679" y2="32.2128" gradientUnits="userSpaceOnUse">
<stop stop-color="#2AABEE"/>
<stop offset="1" stop-color="#229ED9"/>
</linearGradient>
<clipPath id="clip0_14_321">
<rect width="32" height="32" fill="white" transform="translate(0.267883 0.212769)"/>
</clipPath>
</defs>
</svg>
