<svg width="33" height="33" viewBox="0 0 33 33" fill="none" xmlns="http://www.w3.org/2000/svg">
<g clip-path="url(#clip0_14_324)">
<path d="M16.1793 0.217183C16.1793 0.217183 25.5577 -0.203673 30.5299 9.223H15.3813C15.3813 9.223 12.5225 9.13086 10.0804 12.5991C9.37891 14.0548 8.62485 15.5543 9.47105 18.5095C8.25206 16.4443 2.99945 7.29827 2.99945 7.29827C2.99945 7.29827 6.70435 0.589853 16.1792 0.217183H16.1793Z" fill="#EF3F36"/>
<path d="M30.0432 24.1479C30.0432 24.1479 25.7156 32.4828 15.0701 32.0707C16.3854 29.7951 22.6465 18.9522 22.6465 18.9522C22.6465 18.9522 24.1592 16.5232 22.3747 12.6736C21.467 11.3363 20.5418 9.93764 17.5605 9.19218C19.9588 9.17039 30.5037 9.19218 30.5037 9.19218C30.5037 9.19218 34.454 15.7559 30.0432 24.1479Z" fill="#111111"/>
<path d="M2.38126 24.2137C2.38126 24.2137 -2.67412 16.2996 3.00818 7.28503C4.31919 9.56064 10.5802 20.4035 10.5802 20.4035C10.5802 20.4035 11.9307 22.929 16.153 23.306C17.7622 23.1877 19.437 23.0868 21.5768 20.8814C20.3971 22.9685 15.1049 32.0883 15.1049 32.0883C15.1049 32.0883 7.44087 32.2286 2.38113 24.2137H2.38126Z" fill="#61BC5B"/>
<path d="M15.0657 32.1497L17.1965 23.2579C17.1965 23.2579 19.5379 23.0736 21.5022 20.9209C20.2832 23.065 15.0657 32.1497 15.0657 32.1497Z" fill="#5AB055"/>
<path d="M9.04135 16.282C9.04135 12.3623 12.2202 9.18347 16.1399 9.18347C20.0596 9.18347 23.2384 12.3623 23.2384 16.282C23.2384 20.2018 20.0596 23.3805 16.1399 23.3805C12.2202 23.3762 9.04135 20.2018 9.04135 16.282Z" fill="white"/>
<path d="M10.2295 16.282C10.2295 13.02 12.8734 10.3717 16.1399 10.3717C19.4019 10.3717 22.0502 13.0156 22.0502 16.282C22.0502 19.5441 19.4064 22.1924 16.1399 22.1924C12.8777 22.1924 10.2295 19.5441 10.2295 16.282Z" fill="url(#paint0_linear_14_324)"/>
<path d="M30.4992 9.19666L21.7257 11.7704C21.7257 11.7704 20.4016 9.82795 17.5561 9.19666C20.0246 9.18346 30.4992 9.19666 30.4992 9.19666Z" fill="#222222"/>
<path d="M9.30009 18.1849C8.0679 16.0497 2.99945 7.29822 2.99945 7.29822L9.49732 13.7259C9.49732 13.7259 8.8308 15.0982 9.08082 17.0625L9.29996 18.1849H9.30009Z" fill="#DF3A32"/>
<path d="M18.7679 29.4628H22.5179M24.7679 31.7128V25.7128H27.0179C27.4157 25.7128 27.7972 25.8708 28.0785 26.1521C28.3598 26.4334 28.5179 26.8149 28.5179 27.2128V27.9628C28.5179 28.3606 28.3598 28.7421 28.0785 29.0234C27.7972 29.3047 27.4157 29.4628 27.0179 29.4628H24.7679M30.7679 25.7128V31.7128M22.5179 31.7128V27.5878C22.5179 27.0905 22.3203 26.6136 21.9687 26.2619C21.6171 25.9103 21.1402 25.7128 20.6429 25.7128C20.1456 25.7128 19.6687 25.9103 19.3171 26.2619C18.9654 26.6136 18.7679 27.0905 18.7679 27.5878V31.7128" stroke="white" stroke-linecap="round" stroke-linejoin="round"/>
</g>
<defs>
<linearGradient id="paint0_linear_14_324" x1="16.1396" y1="10.4552" x2="16.1396" y2="21.8366" gradientUnits="userSpaceOnUse">
<stop stop-color="#86BBE5"/>
<stop offset="1" stop-color="#1072BA"/>
</linearGradient>
<clipPath id="clip0_14_324">
<rect width="31.8755" height="32" fill="white" transform="translate(0.267883 0.212769)"/>
</clipPath>
</defs>
</svg>
