<svg width="33" height="33" viewBox="0 0 33 33" fill="none" xmlns="http://www.w3.org/2000/svg">
<g clip-path="url(#clip0_17_35)">
<path d="M15.9315 0.221924C7.79575 0.221924 8.30373 3.75008 8.30373 3.75008L8.31277 7.40536H16.0766V8.50277H5.2291C5.2291 8.50277 0.0230103 7.91234 0.0230103 16.1213C0.0230103 24.3305 4.56701 24.0393 4.56701 24.0393H7.27885V20.23C7.27885 20.23 7.13266 15.686 11.7503 15.686H19.4506C19.4506 15.686 23.7769 15.7559 23.7769 11.5047V4.47579C23.7769 4.47579 24.434 0.221924 15.9315 0.221924ZM11.6506 2.68003C11.834 2.67986 12.0157 2.71587 12.1852 2.78601C12.3548 2.85614 12.5088 2.95901 12.6385 3.08874C12.7683 3.21847 12.8711 3.37251 12.9413 3.54204C13.0114 3.71157 13.0474 3.89327 13.0473 4.07673C13.0474 4.2602 13.0114 4.44189 12.9413 4.61142C12.8711 4.78095 12.7683 4.93499 12.6385 5.06472C12.5088 5.19445 12.3548 5.29732 12.1852 5.36746C12.0157 5.43759 11.834 5.4736 11.6506 5.47344C11.4671 5.4736 11.2854 5.43759 11.1159 5.36746C10.9463 5.29732 10.7923 5.19445 10.6626 5.06472C10.5328 4.93499 10.43 4.78095 10.3598 4.61142C10.2897 4.44189 10.2537 4.2602 10.2538 4.07673C10.2537 3.89327 10.2897 3.71157 10.3598 3.54204C10.43 3.37251 10.5328 3.21847 10.6626 3.08874C10.7923 2.95901 10.9463 2.85614 11.1159 2.78601C11.2854 2.71587 11.4671 2.67986 11.6506 2.68003Z" fill="url(#paint0_linear_17_35)"/>
<path d="M16.1626 32.1031C24.2984 32.1031 23.7904 28.575 23.7904 28.575L23.7814 24.9198H16.0174V23.8224H26.8649C26.8649 23.8224 32.071 24.4128 32.071 16.2036C32.071 7.99456 27.527 8.2857 27.527 8.2857H24.8151V12.095C24.8151 12.095 24.9613 16.639 20.3437 16.639H12.6433C12.6433 16.639 8.31707 16.5691 8.31707 20.8203V27.8494C8.31707 27.8494 7.66013 32.1031 16.1625 32.1031H16.1626ZM20.4436 29.6453C20.2601 29.6454 20.0784 29.6094 19.9089 29.5393C19.7393 29.4691 19.5853 29.3663 19.4556 29.2365C19.3258 29.1068 19.223 28.9528 19.1528 28.7832C19.0827 28.6137 19.0467 28.432 19.0469 28.2486C19.0467 28.0651 19.0827 27.8834 19.1528 27.7138C19.2229 27.5443 19.3258 27.3902 19.4555 27.2605C19.5853 27.1307 19.7393 27.0279 19.9088 26.9577C20.0784 26.8876 20.2601 26.8516 20.4436 26.8517C20.627 26.8516 20.8087 26.8876 20.9783 26.9577C21.1478 27.0278 21.3018 27.1307 21.4316 27.2604C21.5613 27.3902 21.6642 27.5442 21.7343 27.7137C21.8044 27.8833 21.8404 28.065 21.8403 28.2484C21.8404 28.4319 21.8044 28.6136 21.7343 28.7831C21.6642 28.9527 21.5613 29.1067 21.4316 29.2364C21.3018 29.3661 21.1478 29.469 20.9783 29.5392C20.8087 29.6093 20.627 29.6453 20.4436 29.6451V29.6453Z" fill="url(#paint1_linear_17_35)"/>
</g>
<defs>
<linearGradient id="paint0_linear_17_35" x1="3.10281" y1="3.08946" x2="18.9848" y2="18.813" gradientUnits="userSpaceOnUse">
<stop stop-color="#387EB8"/>
<stop offset="1" stop-color="#366994"/>
</linearGradient>
<linearGradient id="paint1_linear_17_35" x1="12.8512" y1="13.1861" x2="29.9066" y2="29.3091" gradientUnits="userSpaceOnUse">
<stop stop-color="#FFE052"/>
<stop offset="1" stop-color="#FFC331"/>
</linearGradient>
<clipPath id="clip0_17_35">
<rect width="32.1255" height="32" fill="white" transform="translate(0.00482178 0.212891)"/>
</clipPath>
</defs>
</svg>
