<svg width="33" height="33" viewBox="0 0 33 33" fill="none" xmlns="http://www.w3.org/2000/svg">
<g clip-path="url(#clip0_17_54)">
<path d="M6.65644 25.6869L1.18194 20.2124C0.53256 19.5467 0.13031 18.6056 0.13031 17.6857C0.13031 17.2599 0.37031 16.5941 0.551435 16.213L5.60481 5.6875L6.65644 25.6869Z" fill="#01579B"/>
<path d="M25.3948 6.73902L19.9203 1.26452C19.4428 0.784516 18.4476 0.212891 17.6053 0.212891C16.8808 0.212891 16.1703 0.358766 15.7116 0.634016L5.60718 5.68739L25.3948 6.73902ZM13.1826 32.2129H26.4464V26.529L16.5514 23.3695L7.49868 26.529L13.1826 32.2129Z" fill="#40C4FF"/>
<path d="M5.6048 22.739C5.6048 24.4281 5.81655 24.8423 6.65642 25.6868L7.49867 26.529H26.4464L17.1843 16.0035L5.6048 5.68726V22.7391V22.739Z" fill="#29B6F6"/>
<path d="M22.447 5.68506H5.6048L26.4464 26.5267H32.1303V13.4746L25.3924 6.73668C24.4467 5.78856 23.6068 5.68506 22.447 5.68506Z" fill="#01579B"/>
<path opacity="0.2" d="M6.8682 25.8961C6.02595 25.0516 5.81658 24.2188 5.81658 22.739V5.89663L5.6072 5.68726V22.7389C5.6047 24.2186 5.6047 24.628 6.8682 25.896L7.4987 26.5265L6.8682 25.896V25.8961Z" fill="white"/>
<path opacity="0.2" d="M31.9209 13.2651V26.3173H26.2371L26.4464 26.529H32.1303V13.4745L31.9209 13.2651Z" fill="#263238"/>
<path opacity="0.2" d="M25.3948 6.73912C24.3503 5.6945 23.4963 5.6875 22.2377 5.6875H5.60718L5.81655 5.89687H22.2377C22.8658 5.89687 24.4514 5.791 25.3948 6.73912Z" fill="white"/>
<path opacity="0.2" d="M31.9209 13.2651L25.3948 6.73889L19.9203 1.26464C19.4428 0.784516 18.4476 0.212891 17.6053 0.212891C16.8808 0.212891 16.1703 0.358766 15.7116 0.634016L5.60719 5.68739L0.553818 16.2129C0.372568 16.5964 0.132568 17.2621 0.132568 17.6856C0.132568 18.6055 0.537318 19.5441 1.18432 20.2123L6.22819 25.221C6.34819 25.3691 6.48944 25.5198 6.65644 25.6868L6.86582 25.8961L7.49632 26.5266L12.9708 32.0011L13.1802 32.2105H26.4416V26.5268H32.1254V13.4744L31.9208 13.265L31.9209 13.2651Z" fill="url(#paint0_radial_17_54)"/>
</g>
<defs>
<radialGradient id="paint0_radial_17_54" cx="0" cy="0" r="1" gradientUnits="userSpaceOnUse" gradientTransform="translate(16.129 16.2099) scale(15.9977 15.9977)">
<stop stop-color="white" stop-opacity="0.1"/>
<stop offset="1" stop-color="white" stop-opacity="0"/>
</radialGradient>
<clipPath id="clip0_17_54">
<rect width="32" height="32" fill="white" transform="translate(0.13031 0.212891)"/>
</clipPath>
</defs>
</svg>
