<svg width="22" height="32" viewBox="0 0 22 32" fill="none" xmlns="http://www.w3.org/2000/svg">
<g clip-path="url(#clip0_21_131)">
<path d="M5.33816 31.9999C8.28216 31.9999 10.6715 29.6106 10.6715 26.6666V21.3333H5.33816C2.39416 21.3333 0.00482178 23.7226 0.00482178 26.6666C0.00482178 29.6106 2.39416 31.9999 5.33816 31.9999Z" fill="#0ACF83"/>
<path d="M0.00482178 16.0001C0.00482178 13.0561 2.39416 10.6667 5.33816 10.6667H10.6715V21.3334H5.33816C2.39416 21.3334 0.00482178 18.9441 0.00482178 16.0001Z" fill="#A259FF"/>
<path d="M0.00482178 5.33333C0.00482178 2.38933 2.39416 0 5.33816 0H10.6715V10.6667H5.33816C2.39416 10.6667 0.00482178 8.27733 0.00482178 5.33333Z" fill="#F24E1E"/>
<path d="M10.6715 0H16.0048C18.9488 0 21.3382 2.38933 21.3382 5.33333C21.3382 8.27733 18.9488 10.6667 16.0048 10.6667H10.6715V0Z" fill="#FF7262"/>
<path d="M21.3382 16.0001C21.3382 18.9441 18.9488 21.3334 16.0048 21.3334C13.0608 21.3334 10.6715 18.9441 10.6715 16.0001C10.6715 13.0561 13.0608 10.6667 16.0048 10.6667C18.9488 10.6667 21.3382 13.0561 21.3382 16.0001Z" fill="#1ABCFE"/>
</g>
<defs>
<clipPath id="clip0_21_131">
<rect width="21.3333" height="32" fill="white" transform="translate(0.00482178)"/>
</clipPath>
</defs>
</svg>
