<svg width="388" height="97" viewBox="0 0 388 97" fill="none" xmlns="http://www.w3.org/2000/svg">
<path d="M384.563 13.3221L380.854 29.0856C379.863 33.2993 373.661 32.5795 373.661 28.2507C373.661 23.0319 369.366 18.8601 364.213 18.8601C361.691 18.8601 360.136 17.151 359.797 15.0922C359.464 13.0747 360.35 11.2134 362.677 10.6126L377.804 6.70752C381.828 5.66878 385.515 9.27705 384.563 13.3221Z" stroke="#E9534B" stroke-width="5.74543"/>
<path d="M25.397 77.045C21.8121 77.045 18.6255 76.4973 15.8373 75.402C13.0491 74.2568 10.6841 72.7133 8.74228 70.7715C6.85026 68.8297 5.40636 66.6141 4.41056 64.1246C3.41477 61.5853 2.91687 58.9215 2.91687 56.1333V54.4156C2.91687 51.5776 3.41477 48.8889 4.41056 46.3496C5.45615 43.7606 6.94984 41.4951 8.89164 39.5533C10.8832 37.6115 13.2731 36.0929 16.0614 34.9976C18.8496 33.8524 21.9615 33.2798 25.397 33.2798C28.932 33.2798 32.0688 33.8524 34.8072 34.9976C37.5955 36.0929 39.9605 37.6115 41.9023 39.5533C43.8441 41.4951 45.3378 43.7606 46.3834 46.3496C47.4289 48.8889 47.9517 51.5776 47.9517 54.4156V56.1333C47.9517 58.9215 47.4538 61.5853 46.458 64.1246C45.4622 66.6141 43.9934 68.8297 42.0516 70.7715C40.1596 72.7133 37.8195 74.2568 35.0313 75.402C32.2431 76.4973 29.0316 77.045 25.397 77.045ZM25.397 66.9626C27.7371 66.9626 29.6789 66.4647 31.2224 65.4689C32.7658 64.4731 33.9359 63.079 34.7325 61.2866C35.579 59.4941 36.0022 57.5025 36.0022 55.3118C36.0022 52.9717 35.579 50.9303 34.7325 49.1876C33.8861 47.3952 32.6663 45.9762 31.073 44.9306C29.5295 43.885 27.6375 43.3622 25.397 43.3622C23.2062 43.3622 21.3142 43.885 19.7209 44.9306C18.1276 45.9762 16.9078 47.3952 16.0614 49.1876C15.2647 50.9303 14.8664 52.9717 14.8664 55.3118C14.8664 57.5025 15.2647 59.4941 16.0614 61.2866C16.858 63.079 18.053 64.4731 19.6462 65.4689C21.2395 66.4647 23.1564 66.9626 25.397 66.9626Z" fill="white"/>
<path d="M61.5193 90.563C58.2195 90.563 55.5445 87.888 55.5445 84.5882V39.4413C55.5445 36.8221 57.6678 34.6988 60.287 34.6988V34.6988C62.9062 34.6988 65.0294 36.8221 65.0294 39.4413V51.7413C65.0294 52.0982 64.729 52.3814 64.3728 52.3605V52.3605C64.0332 52.3405 63.7726 52.0503 63.7949 51.7109C64.0461 47.8964 64.8808 44.6654 66.2991 42.0179C67.7928 39.1799 69.8093 37.0638 72.3485 35.6697C74.8878 34.2258 77.7507 33.5039 80.9373 33.5039C83.7753 33.5039 86.3395 34.0267 88.6298 35.0722C90.9699 36.1178 92.9615 37.5866 94.6046 39.4786C96.2974 41.3209 97.5671 43.5116 98.4135 46.0509C99.3097 48.5404 99.7578 51.2788 99.7578 54.2662V55.9839C99.7578 58.9215 99.3346 61.6849 98.4882 64.2739C97.6417 66.8132 96.397 69.0289 94.7539 70.9209C93.1607 72.8129 91.194 74.3066 88.8538 75.402C86.5635 76.4476 83.9247 76.9703 80.9373 76.9703C77.8503 76.9703 75.0621 76.348 72.5726 75.1032C70.1329 73.8087 68.1662 71.8669 66.6725 69.2778C65.8488 67.8227 65.2295 66.1555 64.8146 64.2764C64.4853 62.7848 66.2906 62.1101 67.1939 63.3419V63.3419C67.3889 63.6078 67.494 63.9289 67.494 64.2586V84.5882C67.494 87.888 64.819 90.563 61.5193 90.563V90.563ZM77.5765 66.9626C79.6178 66.9626 81.3854 66.4647 82.8791 65.4689C84.4226 64.4731 85.6175 63.079 86.4639 61.2866C87.3104 59.4941 87.7336 57.4279 87.7336 55.0877C87.7336 52.7476 87.3104 50.7062 86.4639 48.9636C85.6175 47.2209 84.4474 45.8766 82.9538 44.9306C81.4601 43.9348 79.6676 43.4369 77.5765 43.4369C75.784 43.4369 74.0912 43.8601 72.4979 44.7066C70.9046 45.553 69.6101 46.7728 68.6143 48.3661C67.6683 49.9096 67.1953 51.8016 67.1953 54.0421V56.8055C67.1953 58.9464 67.6932 60.7887 68.689 62.3321C69.7346 63.8258 71.054 64.971 72.6473 65.7676C74.2405 66.5643 75.8836 66.9626 77.5765 66.9626Z" fill="white"/>
<path d="M125.907 76.1488C121.774 76.1488 118.438 75.6509 115.899 74.6551C113.36 73.6095 111.493 71.8918 110.298 69.5019C109.153 67.0622 108.58 63.7761 108.58 59.6435V29.2095C108.58 26.1366 111.071 23.6455 114.144 23.6455V23.6455C117.217 23.6455 119.708 26.1366 119.708 29.2095V60.0916C119.708 62.0334 120.206 63.5271 121.202 64.5727C122.247 65.5685 123.716 66.0664 125.608 66.0664H126.616C129.4 66.0664 131.657 68.3234 131.657 71.1076V71.1076C131.657 73.8918 129.4 76.1488 126.616 76.1488H125.907ZM106.75 43.4369C104.337 43.4369 102.381 41.4808 102.381 39.0679V39.0679C102.381 36.6549 104.337 34.6988 106.75 34.6988H127.288C129.701 34.6988 131.657 36.6549 131.657 39.0679V39.0679C131.657 41.4808 129.701 43.4369 127.288 43.4369H106.75Z" fill="white"/>
<path d="M158.741 77.045C155.156 77.045 151.97 76.4973 149.182 75.402C146.393 74.2568 144.028 72.7133 142.087 70.7715C140.195 68.8297 138.751 66.6141 137.755 64.1246C136.759 61.5853 136.261 58.9215 136.261 56.1333V54.4156C136.261 51.5776 136.759 48.8889 137.755 46.3496C138.8 43.7606 140.294 41.4951 142.236 39.5533C144.227 37.6115 146.617 36.0929 149.406 34.9976C152.194 33.8524 155.306 33.2798 158.741 33.2798C162.276 33.2798 165.413 33.8524 168.151 34.9976C170.94 36.0929 173.305 37.6115 175.247 39.5533C177.188 41.4951 178.682 43.7606 179.728 46.3496C180.773 48.8889 181.296 51.5776 181.296 54.4156V56.1333C181.296 58.9215 180.798 61.5853 179.802 64.1246C178.806 66.6141 177.338 68.8297 175.396 70.7715C173.504 72.7133 171.164 74.2568 168.376 75.402C165.587 76.4973 162.376 77.045 158.741 77.045ZM158.741 66.9626C161.081 66.9626 163.023 66.4647 164.567 65.4689C166.11 64.4731 167.28 63.079 168.077 61.2866C168.923 59.4941 169.346 57.5025 169.346 55.3118C169.346 52.9717 168.923 50.9303 168.077 49.1876C167.23 47.3952 166.011 45.9762 164.417 44.9306C162.874 43.885 160.982 43.3622 158.741 43.3622C156.55 43.3622 154.658 43.885 153.065 44.9306C151.472 45.9762 150.252 47.3952 149.406 49.1876C148.609 50.9303 148.211 52.9717 148.211 55.3118C148.211 57.5025 148.609 59.4941 149.406 61.2866C150.202 63.079 151.397 64.4731 152.99 65.4689C154.584 66.4647 156.501 66.9626 158.741 66.9626Z" fill="white"/>
<path d="M207.261 77.045C203.726 77.045 200.639 76.4724 198 75.3273C195.411 74.1323 193.245 72.5391 191.503 70.5475C189.76 68.5559 188.466 66.3153 187.619 63.8258C186.773 61.2866 186.349 58.6726 186.349 55.9839V54.5649C186.349 51.7767 186.798 49.113 187.694 46.5737C188.59 43.9846 189.909 41.6943 191.652 39.7027C193.395 37.7111 195.561 36.1427 198.15 34.9976C200.788 33.8524 203.801 33.2798 207.186 33.2798C210.871 33.2798 214.132 34.0018 216.97 35.4457C219.808 36.8398 222.074 38.8065 223.766 41.3457C224.314 42.1665 224.783 43.0262 225.174 43.925C226.549 47.0848 223.632 50.0839 220.186 50.0839V50.0839C217.197 50.0839 214.793 47.5254 212.638 45.4534V45.4534C211.394 44.1589 209.576 43.5116 207.186 43.5116C205.195 43.5116 203.527 44.0095 202.183 45.0053C200.888 46.0011 199.917 47.3703 199.27 49.113C198.623 50.8556 198.299 52.9219 198.299 55.3118C198.299 57.5025 198.598 59.4941 199.195 61.2866C199.793 63.0292 200.739 64.3984 202.033 65.3942C203.378 66.3402 205.12 66.8132 207.261 66.8132C208.854 66.8132 210.199 66.5394 211.294 65.9917C212.439 65.3942 213.336 64.5976 213.983 63.6018V63.6018C215.195 61.7828 216.906 60.0169 219.093 60.0169H220.627C224.048 60.0169 226.907 62.9627 225.599 66.1231C225.184 67.1236 224.673 68.0756 224.065 68.9791C222.323 71.5184 220.007 73.51 217.12 74.9539C214.232 76.348 210.946 77.045 207.261 77.045Z" fill="white"/>
<path d="M239.773 75.626C236.474 75.626 233.799 72.951 233.799 69.6513V27.081C233.799 23.7812 236.474 21.1062 239.773 21.1062V21.1062C243.073 21.1062 245.748 23.7812 245.748 27.081V51.6522C245.748 52.1472 245.347 52.5485 244.852 52.5485V52.5485C244.357 52.5485 243.955 52.1467 243.964 51.6519C244.035 47.9094 244.555 44.723 245.524 42.0926C246.57 39.2546 248.113 37.1136 250.155 35.6697C252.196 34.176 254.76 33.4292 257.847 33.4292H258.37C262.901 33.4292 266.361 35.0473 268.751 38.2837C271.141 41.4702 272.336 46.1505 272.336 52.3244V69.6512C272.336 72.951 269.661 75.626 266.361 75.626V75.626C263.061 75.626 260.386 72.951 260.386 69.6512V51.5775C260.386 49.337 259.714 47.5446 258.37 46.2003C257.075 44.8061 255.358 44.1091 253.217 44.1091C250.976 44.1091 249.159 44.831 247.765 46.2749C246.42 47.7188 245.748 49.6358 245.748 52.0257V69.6513C245.748 72.951 243.073 75.626 239.773 75.626V75.626Z" fill="white"/>
<path d="M313.517 75.626C311.693 75.626 309.988 74.7206 308.967 73.2095L298.35 57.498C297.931 56.8782 297.232 56.5067 296.483 56.5067V56.5067C294.618 56.5067 293.561 54.3695 294.693 52.8872L307.095 36.6481C308.033 35.4196 309.491 34.6988 311.036 34.6988V34.6988C315.155 34.6988 317.479 39.4287 314.962 42.6889L307.232 52.7009C306.668 53.4317 305.498 53.0159 305.522 52.0929V52.0929C305.546 51.1715 306.732 50.8151 307.259 51.5711L318.02 66.993C320.56 70.6331 317.955 75.626 313.517 75.626V75.626ZM287.747 75.626C284.447 75.626 281.772 72.951 281.772 69.6513V27.081C281.772 23.7812 284.447 21.1062 287.747 21.1062V21.1062C291.046 21.1062 293.721 23.7812 293.721 27.081V69.6513C293.721 72.951 291.046 75.626 287.747 75.626V75.626Z" fill="white"/>
<path d="M357.458 75.626C354.839 75.626 352.715 73.5027 352.715 70.8835V64.5353C352.715 63.9785 352.264 63.5271 351.707 63.5271V63.5271C351.15 63.5271 350.699 63.0757 350.699 62.5189V50.3826C350.699 48.2914 350.201 46.723 349.205 45.6775C348.209 44.6319 346.616 44.1091 344.425 44.1091C343.33 44.1091 341.886 44.134 340.094 44.1838C338.301 44.2336 336.459 44.3082 334.567 44.4078V44.4078C331.775 44.5547 329.414 42.3401 329.414 39.5446V38.6682C329.414 36.3802 331.163 34.4727 333.447 34.3254V34.3254C334.99 34.2258 336.583 34.1511 338.227 34.1013C339.87 34.0515 341.413 34.0266 342.857 34.0266C347.039 34.0266 350.55 34.6241 353.388 35.8191C356.275 37.014 358.466 38.8314 359.96 41.2711C361.453 43.661 362.2 46.7479 362.2 50.532V70.8835C362.2 73.5027 360.077 75.626 357.458 75.626V75.626ZM339.646 76.6716C336.708 76.6716 334.119 76.1488 331.878 75.1032C329.688 74.0576 327.97 72.5639 326.725 70.6221C325.48 68.6306 324.858 66.2655 324.858 63.5271C324.858 60.5397 325.63 58.1 327.173 56.208C328.717 54.2662 330.883 52.8472 333.671 51.951C336.459 51.005 339.67 50.532 343.305 50.532H348.72C350.555 50.532 352.043 52.0199 352.043 53.8554V53.8554C352.043 55.6909 350.555 57.1789 348.72 57.1789H343.23C341.139 57.1789 339.521 57.7017 338.376 58.7473C337.281 59.7431 336.733 61.1123 336.733 62.8549C336.733 64.498 337.281 65.8423 338.376 66.8879C339.521 67.8837 341.139 68.3816 343.23 68.3816C344.575 68.3816 345.77 68.1576 346.815 67.7094C347.911 67.2115 348.807 66.39 349.504 65.2448C349.75 64.8399 349.96 64.3789 350.131 63.8619C350.541 62.6281 352.182 62.0267 353.078 62.9693V62.9693C353.37 63.2765 353.518 63.6947 353.47 64.1156C353.175 66.6647 352.501 68.8335 351.446 70.6221C350.35 72.5639 348.807 74.0576 346.815 75.1032C344.873 76.1488 342.484 76.6716 339.646 76.6716Z" fill="white"/>
</svg>
