<svg width="419" height="97" viewBox="0 0 419 97" fill="none" xmlns="http://www.w3.org/2000/svg">
<path d="M14.1504 76.535C10.1439 76.535 6.89601 73.2871 6.89601 69.2806V41.3511C6.89601 33.3381 13.3918 26.8423 21.4048 26.8423V69.2806C21.4048 73.2871 18.1569 76.535 14.1504 76.535ZM5.62649 37.5425C2.6717 37.5425 0.276367 35.1472 0.276367 32.1924C0.276367 29.2376 2.6717 26.8423 5.62649 26.8423H21.4048V26.9783C21.4048 32.8128 16.6751 37.5425 10.8406 37.5425H5.62649Z" fill="white"/>
<path d="M42.0785 94.671C38.072 94.671 34.8241 91.4231 34.8241 87.4166V32.6005C34.8241 29.4203 37.4021 26.8423 40.5822 26.8423C43.7624 26.8423 46.3404 29.4203 46.3404 32.6005V47.5348C46.3404 47.9681 45.9757 48.312 45.5431 48.2866C45.1309 48.2623 44.8144 47.91 44.8415 47.4979C45.1465 42.8664 46.16 38.9434 47.882 35.7289C49.6956 32.2831 52.144 29.7138 55.2271 28.0211C58.3102 26.268 61.7863 25.3914 65.6553 25.3914C69.1011 25.3914 72.2145 26.0262 74.9953 27.2957C77.8366 28.5652 80.2548 30.3486 82.2497 32.6458C84.3052 34.8826 85.8467 37.5425 86.8744 40.6256C87.9626 43.6483 88.5067 46.9733 88.5067 50.6005V52.6861C88.5067 56.2528 87.9928 59.608 86.9651 62.7516C85.9374 65.8347 84.4261 68.5249 82.4311 70.8221C80.4966 73.1194 78.1087 74.9329 75.2674 76.2629C72.4865 77.5324 69.2825 78.1672 65.6553 78.1672C61.9072 78.1672 58.5218 77.4115 55.4991 75.9002C52.5369 74.3284 50.149 71.9707 48.3354 68.8272C47.3353 67.0603 46.5834 65.0361 46.0796 62.7546C45.6798 60.9435 47.8717 60.1243 48.9685 61.62C49.2052 61.9428 49.3329 62.3327 49.3329 62.733V87.4166C49.3329 91.4231 46.085 94.671 42.0785 94.671ZM61.5747 66.0161C64.0533 66.0161 66.1994 65.4115 68.013 64.2025C69.887 62.9934 71.3379 61.3007 72.3656 59.1244C73.3933 56.9481 73.9072 54.4392 73.9072 51.5979C73.9072 48.7566 73.3933 46.278 72.3656 44.1622C71.3379 42.0463 69.9173 40.4141 68.1037 39.2654C66.29 38.0564 64.1137 37.4518 61.5747 37.4518C59.3984 37.4518 57.343 37.9657 55.4084 38.9934C53.4739 40.0211 51.9021 41.5022 50.6931 43.4367C49.5445 45.3108 48.9702 47.608 48.9702 50.3284V53.6836C48.9702 56.2831 49.5747 58.5199 50.7838 60.3939C52.0533 62.2075 53.6553 63.5979 55.5898 64.5652C57.5243 65.5325 59.5193 66.0161 61.5747 66.0161Z" fill="white"/>
<path d="M121.344 78.2579C117.112 78.2579 113.364 77.5324 110.1 76.0816C106.896 74.6307 104.206 72.6962 102.029 70.278C99.9135 67.7994 98.2812 65.0488 97.1326 62.0261C96.0444 58.943 95.5004 55.7994 95.5004 52.5954V50.7818C95.5004 47.4569 96.0444 44.2831 97.1326 41.2604C98.2812 38.1773 99.9135 35.4267 102.029 33.0085C104.145 30.5904 106.775 28.6861 109.919 27.2957C113.123 25.8448 116.75 25.1194 120.8 25.1194C126.12 25.1194 130.594 26.3284 134.221 28.7466C137.908 31.1042 140.72 34.2176 142.654 38.0866C144.589 41.8952 145.556 46.0665 145.556 50.6005C145.556 53.3048 143.363 55.4972 140.659 55.4972H105.702C103.423 55.4972 101.576 53.6499 101.576 51.3712C101.576 49.0925 103.423 47.2453 105.702 47.2453H133.276C134.437 47.2453 134.953 48.7049 134.049 49.4345C133.244 50.0849 132.026 49.5104 131.928 48.4799C131.749 46.5931 131.365 44.9121 130.775 43.4367C129.929 41.3209 128.659 39.7188 126.966 38.6307C125.334 37.4821 123.279 36.9078 120.8 36.9078C118.261 36.9078 116.115 37.4821 114.362 38.6307C112.609 39.7793 111.279 41.472 110.372 43.7088C109.465 45.8851 109.012 48.5753 109.012 51.7793C109.012 54.7415 109.435 57.341 110.281 59.5778C111.128 61.7541 112.458 63.4468 114.271 64.6559C116.085 65.8649 118.442 66.4695 121.344 66.4695C124.004 66.4695 126.18 65.9556 127.873 64.9279C128.025 64.8357 128.173 64.7415 128.316 64.6454C130.674 63.0617 133.182 61.1194 136.023 61.1194C140.456 61.1194 143.773 65.3525 141.19 68.9559C140.934 69.3123 140.667 69.6623 140.387 70.006C138.271 72.6055 135.611 74.6307 132.407 76.0816C129.203 77.5324 125.515 78.2579 121.344 78.2579Z" fill="white"/>
<path d="M193.714 76.535C191.499 76.535 189.43 75.4356 188.19 73.6009L175.298 54.5244C174.79 53.7718 173.941 53.3209 173.032 53.3209C170.768 53.3209 169.484 50.7259 170.859 48.9261L185.917 29.209C187.056 27.7174 188.825 26.8423 190.702 26.8423C195.703 26.8423 198.524 32.5852 195.468 36.5436L186.083 48.6999C185.398 49.5872 183.978 49.0823 184.006 47.9618C184.035 46.8429 185.476 46.4103 186.116 47.3281L199.181 66.053C202.265 70.4727 199.103 76.535 193.714 76.535ZM162.424 76.535C158.418 76.535 155.17 73.2871 155.17 69.2806V17.5929C155.17 13.5864 158.418 10.3385 162.424 10.3385C166.431 10.3385 169.679 13.5864 169.679 17.5929V69.2806C169.679 73.2871 166.431 76.535 162.424 76.535Z" fill="white"/>
<path d="M237.746 96.2125C234.341 96.2125 231.58 93.4518 231.58 90.0463C231.58 86.6408 234.341 83.8801 237.746 83.8801H241.918C243.489 83.8801 244.819 83.6685 245.907 83.2453C246.996 82.8826 247.872 82.2478 248.537 81.341C249.202 80.4342 249.746 79.1949 250.169 77.6231L261.187 31.9186C261.905 28.9407 264.57 26.8423 267.633 26.8423C271.968 26.8423 275.137 30.9343 274.052 35.1315L262.321 80.5249C261.353 84.3939 259.993 87.477 258.24 89.7743C256.547 92.0715 254.25 93.7037 251.348 94.671C248.507 95.6987 244.88 96.2125 240.467 96.2125H237.746ZM252.436 75.4468C249.532 75.4468 247.177 73.0921 247.177 70.1874V69.3712C247.177 66.4665 249.532 64.1118 252.436 64.1118C255.341 64.1118 257.696 66.4665 257.696 69.3712V70.1874C257.696 73.0921 255.341 75.4468 252.436 75.4468ZM246.073 75.4468C243.169 75.4468 240.601 73.5606 239.732 70.7892L228.778 35.8401C227.38 31.3789 230.712 26.8423 235.387 26.8423C238.454 26.8423 241.156 28.8588 242.028 31.7988L252.444 66.912C253.707 71.1713 250.516 75.4468 246.073 75.4468Z" fill="white"/>
<path d="M306.9 78.2579C302.548 78.2579 298.679 77.5929 295.293 76.2629C291.908 74.8725 289.036 72.9984 286.679 70.6408C284.382 68.2831 282.628 65.5929 281.419 62.5702C280.21 59.4871 279.606 56.2528 279.606 52.8675V50.7818C279.606 47.336 280.21 44.0715 281.419 40.9884C282.689 37.8448 284.502 35.0942 286.86 32.7365C289.278 30.3788 292.18 28.535 295.565 27.205C298.951 25.8146 302.729 25.1194 306.9 25.1194C311.193 25.1194 315.001 25.8146 318.326 27.205C321.711 28.535 324.583 30.3788 326.941 32.7365C329.298 35.0942 331.112 37.8448 332.382 40.9884C333.651 44.0715 334.286 47.336 334.286 50.7818V52.8675C334.286 56.2528 333.681 59.4871 332.472 62.5702C331.263 65.5929 329.48 68.2831 327.122 70.6408C324.825 72.9984 321.984 74.8725 318.598 76.2629C315.213 77.5929 311.314 78.2579 306.9 78.2579ZM306.9 66.0161C309.742 66.0161 312.099 65.4115 313.973 64.2025C315.848 62.9934 317.268 61.3007 318.235 59.1244C319.263 56.9481 319.777 54.5299 319.777 51.87C319.777 49.0287 319.263 46.5501 318.235 44.4342C317.208 42.2579 315.727 40.535 313.792 39.2654C311.918 37.9959 309.621 37.3612 306.9 37.3612C304.24 37.3612 301.943 37.9959 300.009 39.2654C298.074 40.535 296.593 42.2579 295.565 44.4342C294.598 46.5501 294.115 49.0287 294.115 51.87C294.115 54.5299 294.598 56.9481 295.565 59.1244C296.533 61.3007 297.984 62.9934 299.918 64.2025C301.853 65.4115 304.18 66.0161 306.9 66.0161Z" fill="white"/>
<path d="M352.346 76.535C348.314 76.535 345.046 73.2668 345.046 69.2352V24.938C345.046 16.8749 351.583 10.3385 359.646 10.3385V69.2352C359.646 73.2668 356.378 76.535 352.346 76.535ZM344.502 21.0387C341.547 21.0387 339.152 18.6434 339.152 15.6886C339.152 12.7338 341.547 10.3385 344.502 10.3385H359.646V10.7919C359.646 16.4511 355.058 21.0387 349.399 21.0387H344.502Z" fill="white"/>
<path d="M389.791 78.0765C384.047 78.0765 379.634 76.2327 376.551 72.545C373.468 68.7969 371.927 63.1748 371.927 55.6785V34.0967C371.927 30.0902 375.174 26.8423 379.181 26.8423C383.187 26.8423 386.435 30.0902 386.435 34.0967V56.404C386.435 59.0639 387.191 61.1798 388.702 62.7516C390.214 64.3234 392.239 65.1093 394.778 65.1093C397.377 65.1093 399.493 64.2932 401.126 62.6609C402.758 61.0287 403.574 58.8221 403.574 56.0413V34.0967C403.574 30.0902 406.822 26.8423 410.828 26.8423C414.835 26.8423 418.083 30.0902 418.083 34.0967V70.7768C418.083 73.9569 415.505 76.535 412.325 76.535C409.144 76.535 406.566 73.9569 406.566 70.7768V56.0866C406.566 55.8112 406.79 55.5879 407.065 55.5879C407.341 55.5879 407.564 55.8113 407.562 56.0867C407.519 60.8846 406.855 64.9198 405.569 68.1924C404.299 71.5173 402.395 73.9959 399.856 75.6282C397.317 77.2604 394.173 78.0765 390.425 78.0765H389.791Z" fill="white"/>
<path d="M8.4726 10.8659C7.01345 10.8659 6.11335 9.8768 5.91685 8.68534C5.72428 7.51772 6.2374 6.44055 7.58409 6.09289L16.3383 3.8329C18.6669 3.23176 20.8006 5.31995 20.2497 7.66093L18.1033 16.7836C17.5295 19.2222 13.9403 18.8056 13.9403 16.3004C13.9403 13.2802 11.4551 10.8659 8.4726 10.8659Z" fill="#EC6861" stroke="#EC6861" stroke-width="3.32502"/>
</svg>
