<svg width="37" height="33" viewBox="0 0 37 33" fill="none" xmlns="http://www.w3.org/2000/svg">
<g clip-path="url(#clip0_14_304)">
<path d="M30.0888 10.5741C29.7064 10.4429 29.3208 10.3214 28.9323 10.2096C28.9975 9.94297 29.0576 9.67953 29.111 9.42073C29.9865 5.17076 29.4141 1.7469 27.4592 0.619603C25.5848 -0.461099 22.5194 0.665778 19.4235 3.36009C19.1184 3.62611 18.8201 3.89978 18.5288 4.18087C18.3338 3.99396 18.1353 3.81067 17.9335 3.63111C14.6889 0.75027 11.4367 -0.463906 9.48386 0.666621C7.61116 1.75069 7.05664 4.96936 7.84485 8.99715C7.92326 9.39606 8.01181 9.79291 8.11039 10.1873C7.65004 10.3181 7.20583 10.4574 6.78071 10.6056C2.97664 11.9319 0.547302 14.0103 0.547302 16.1663C0.547302 18.3929 3.1553 20.6263 7.11741 21.9806C7.43862 22.0899 7.76251 22.1912 8.08878 22.2844C7.98281 22.7092 7.88874 23.1369 7.80667 23.567C7.05523 27.5249 7.64204 30.6675 9.50969 31.7447C11.4387 32.8571 14.6763 31.7138 17.8287 28.958C18.0843 28.7339 18.3343 28.5036 18.5785 28.267C18.8939 28.5714 19.2178 28.8669 19.5497 29.1532C22.6034 31.7809 25.6193 32.8419 27.4851 31.7618C29.4123 30.6461 30.0387 27.2701 29.2255 23.1628C29.1614 22.841 29.0896 22.5208 29.01 22.2025C29.2374 22.1351 29.4606 22.0658 29.6781 21.9936C33.7971 20.629 36.4771 18.4227 36.4771 16.1663C36.4771 14.0025 33.9693 11.91 30.0888 10.5741ZM29.1954 20.5368C28.999 20.6018 28.7974 20.6645 28.5919 20.7256C28.1372 19.286 27.5236 17.7553 26.7726 16.1737C27.4892 14.6298 28.0792 13.1187 28.5212 11.6885C28.8888 11.7949 29.2454 11.907 29.5893 12.0254C32.9142 13.1701 34.9422 14.8623 34.9422 16.1663C34.9422 17.5552 32.7519 19.3583 29.1954 20.5368ZM27.7198 23.4609C28.0794 25.277 28.1306 26.9191 27.8924 28.2029C27.6785 29.3564 27.2482 30.1254 26.716 30.4335C25.5838 31.0889 23.1623 30.237 20.5508 27.9897C20.2421 27.7235 19.9408 27.4488 19.6474 27.1658C20.6599 26.0586 21.6717 24.7715 22.6592 23.3419C24.3961 23.1877 26.0371 22.9357 27.5253 22.5917C27.597 22.8798 27.6618 23.1696 27.7198 23.4609ZM12.7966 30.3202C11.6903 30.7108 10.8092 30.7221 10.2766 30.415C9.14323 29.7614 8.67207 27.238 9.31474 23.8533C9.39114 23.4533 9.47861 23.0556 9.57706 22.6604C11.0488 22.9861 12.6778 23.2202 14.4189 23.3614C15.4131 24.7602 16.4541 26.046 17.5032 27.1719C17.2803 27.3876 17.052 27.5978 16.8187 27.8023C15.4246 29.0209 14.0277 29.8854 12.7966 30.3202ZM7.61397 20.5282C5.86197 19.9294 4.41509 19.1511 3.42337 18.3018C2.53214 17.5388 2.08232 16.781 2.08232 16.1663C2.08232 14.8579 4.03278 13.1891 7.28597 12.055C7.68078 11.9174 8.09397 11.7876 8.52274 11.6658C8.97243 13.1282 9.56218 14.6574 10.2739 16.2036C9.55292 17.7727 8.95474 19.3263 8.50071 20.806C8.2029 20.7207 7.90723 20.6281 7.61397 20.5282ZM9.35123 8.70227C8.676 5.25146 9.12442 2.64838 10.253 1.99504C11.455 1.29918 14.1129 2.29132 16.9145 4.7789C17.0971 4.94148 17.2769 5.10736 17.4535 5.27644C16.4096 6.39743 15.3782 7.67364 14.3928 9.06423C12.703 9.22087 11.0854 9.47237 9.59825 9.80936C9.50662 9.44251 9.42426 9.07341 9.35123 8.70241V8.70227ZM24.8498 12.5294C24.4985 11.9226 24.1342 11.3235 23.7571 10.7324C24.9035 10.8774 26.0019 11.0698 27.0333 11.3051C26.7237 12.2976 26.3378 13.3353 25.8834 14.3991C25.5514 13.769 25.2067 13.1457 24.8498 12.5294ZM18.5295 6.37343C19.2374 7.14045 19.9465 7.99673 20.6439 8.92585C19.2291 8.85903 17.812 8.85875 16.3973 8.92501C17.0954 8.00445 17.8105 7.14929 18.5295 6.37343ZM12.1686 12.5399C11.8161 13.1512 11.4779 13.7707 11.1543 14.3978C10.7074 13.3378 10.325 12.2954 10.0127 11.2888C11.0378 11.0595 12.131 10.872 13.2701 10.7296C12.8888 11.3243 12.5216 11.9278 12.1686 12.5397V12.5399ZM13.3028 21.7121C12.126 21.5807 11.0164 21.4029 9.99151 21.1797C10.3087 20.1552 10.6996 19.0906 11.1561 18.0078C11.481 18.6354 11.8206 19.2553 12.1747 19.8669C12.5387 20.4957 12.9157 21.1115 13.3028 21.7121ZM18.5719 26.0672C17.8443 25.2823 17.1187 24.414 16.41 23.4801C17.098 23.507 17.7994 23.5208 18.5122 23.5208C19.2446 23.5208 19.9685 23.5044 20.6811 23.4727C19.9814 24.4234 19.275 25.293 18.5719 26.0672ZM25.8979 17.9525C26.3782 19.0473 26.783 20.1062 27.1044 21.1132C26.0627 21.351 24.9379 21.5424 23.7528 21.6846C24.1325 21.0826 24.5003 20.473 24.8558 19.8564C25.2172 19.2296 25.5647 18.5948 25.8979 17.9525ZM23.5263 19.0895C22.982 20.035 22.4071 20.9625 21.8026 21.8706C20.7075 21.9481 19.61 21.9866 18.5122 21.9861C17.394 21.9861 16.3065 21.9513 15.2592 21.8833C14.6388 20.9773 14.053 20.0482 13.503 19.0979H13.5031C12.9556 18.1527 12.4442 17.187 11.97 16.2029C12.443 15.2186 12.9529 14.2524 13.4985 13.3065L13.4983 13.3066C14.0437 12.3604 14.6249 11.4352 15.2405 10.5331C16.309 10.4523 17.4047 10.4102 18.5121 10.4102H18.5122C19.6246 10.4102 20.7218 10.4527 21.79 10.5341C22.3994 11.4349 22.9768 12.3569 23.5212 13.2983C24.0686 14.2422 24.5852 15.2037 25.0701 16.1811C24.5902 17.1686 24.0752 18.1387 23.5263 19.0895ZM26.6926 1.94929C27.8957 2.64318 28.3636 5.44136 27.6077 9.11083C27.5594 9.34494 27.5052 9.58339 27.4462 9.82522C25.9554 9.48108 24.3368 9.22522 22.642 9.0662C21.6548 7.66031 20.6318 6.38213 19.6048 5.2756C19.874 5.01617 20.1495 4.76346 20.4312 4.51771C23.0839 2.20936 25.563 1.29792 26.6926 1.94929ZM18.5122 12.9578C20.2841 12.9578 21.7206 14.3943 21.7206 16.1663C21.7206 17.9382 20.2841 19.3747 18.5122 19.3747C16.7403 19.3747 15.3038 17.9382 15.3038 16.1663C15.3038 14.3943 16.7403 12.9578 18.5122 12.9578Z" fill="#00D8FF"/>
</g>
<defs>
<clipPath id="clip0_14_304">
<rect width="35.9298" height="32" fill="white" transform="translate(0.547302 0.212769)"/>
</clipPath>
</defs>
</svg>
