<svg width="33" height="32" viewBox="0 0 33 32" fill="none" xmlns="http://www.w3.org/2000/svg">
<path d="M28.5828 5.33325H4.09349C3.49223 5.33325 3.00482 5.82066 3.00482 6.42192V25.5779C3.00482 26.1792 3.49223 26.6666 4.09349 26.6666H28.5828C29.1841 26.6666 29.6715 26.1792 29.6715 25.5779V6.42192C29.6715 5.82066 29.1841 5.33325 28.5828 5.33325Z" fill="#1ABCFE" stroke="white" stroke-width="2"/>
<path d="M11.0048 12.6318C9.67149 10.6664 7.33669 11.9582 7.50409 13.979C7.67149 15.9998 10.3382 15.9998 10.5047 18.0206C10.6713 20.0414 8.33816 21.3331 7.00482 19.3678" stroke="white" stroke-width="2" stroke-linecap="round" stroke-linejoin="round"/>
<path d="M17.6715 12H15.0048V20.6667H17.6715" stroke="white" stroke-width="2" stroke-linecap="round" stroke-linejoin="round"/>
<path d="M15.0048 16.6665H17.6715" stroke="white" stroke-width="2" stroke-linecap="round" stroke-linejoin="round"/>
<path d="M25.6715 14C25.6715 12.8954 24.7761 12 23.6715 12C22.5669 12 21.6715 12.8954 21.6715 14V18.6667C21.6715 19.7712 22.5669 20.6667 23.6715 20.6667C24.7761 20.6667 25.6715 19.7712 25.6715 18.6667V14Z" stroke="white" stroke-width="2" stroke-linecap="round" stroke-linejoin="round"/>
</svg>
