<svg width="33" height="33" viewBox="0 0 33 33" fill="none" xmlns="http://www.w3.org/2000/svg">
<path d="M14.2653 4.21289H18.2303V22.3819C16.5378 22.7293 14.8151 22.9085 13.0873 22.9169C8.24528 22.9119 5.72528 20.7489 5.72528 16.5949C5.72528 12.5949 8.39828 9.99489 12.5413 9.99489C13.1223 9.98356 13.7023 10.0508 14.2653 10.1949V4.21289ZM14.2653 13.3549C13.8342 13.2127 13.3821 13.1451 12.9283 13.1549C10.9283 13.1549 9.76528 14.3779 9.76528 16.5209C9.76528 18.6079 10.8723 19.7599 12.9033 19.7599C13.3591 19.7598 13.8143 19.7264 14.2653 19.6599V13.3599V13.3549Z" fill="#44B78B"/>
<path d="M24.5303 10.2719V19.3719C24.5303 22.5049 24.2953 24.0109 23.6073 25.3099C22.9052 26.6307 21.757 27.6594 20.3673 28.2129L16.6893 26.4799C18.0255 26.0224 19.1446 25.0857 19.8303 23.8509C20.3963 22.7299 20.5753 21.4309 20.5753 18.0139V10.2719H24.5303ZM20.5713 4.23291H24.5353V8.26091H20.5713V4.23291Z" fill="#44B78B"/>
</svg>
