<svg width="55" height="33" viewBox="0 0 55 33" fill="none" xmlns="http://www.w3.org/2000/svg">
<g clip-path="url(#clip0_14_319)">
<path fill-rule="evenodd" clip-rule="evenodd" d="M49.2773 0.212769H5.6948C2.93673 0.212769 0.704053 2.46741 0.725805 5.20351V21.8397C0.725805 24.5978 2.95869 26.8307 5.71676 26.8307H26.3586L35.7934 32.0841L33.6479 26.8307H49.2773C52.0354 26.8307 54.2681 24.5978 54.2681 21.8397V5.20351C54.2681 2.44545 52.0354 0.212769 49.2773 0.212769ZM4.77558 4.06532C4.16277 4.10924 3.70306 4.32801 3.39645 4.74401C3.09004 5.13784 2.98065 5.64127 3.04633 6.21057C4.33783 14.4193 5.5417 19.9572 6.65814 22.8248C7.0959 23.8754 7.59932 24.379 8.19038 24.3353C9.10981 24.2694 10.2043 22.9999 11.4958 20.5265C12.1743 19.1254 13.225 17.0241 14.6477 14.2221C15.8298 18.3593 17.4497 21.4677 19.4853 23.5473C20.0546 24.1381 20.6457 24.4008 21.2146 24.3571C21.7182 24.3132 22.1123 24.0507 22.375 23.569C22.5937 23.1532 22.6814 22.6715 22.6376 22.1244C22.5063 20.1325 22.7033 17.3524 23.2505 13.7843C23.8196 10.1068 24.52 7.45815 25.3738 5.88221C25.5488 5.55384 25.6145 5.22547 25.5927 4.83144C25.5488 4.32801 25.33 3.91222 24.914 3.58385C24.4982 3.25549 24.0385 3.10218 23.5351 3.14589C22.9003 3.18981 22.4187 3.49622 22.0903 4.10903C20.7331 6.58265 19.77 10.5885 19.2009 16.1484C18.3691 14.047 17.6689 11.5738 17.1213 8.66244C16.8808 7.37094 16.2895 6.75792 15.3264 6.82359C14.6696 6.86751 14.1225 7.30527 13.6845 8.13706L8.89082 17.2648C8.10275 14.0907 7.35859 10.2164 6.68011 5.64147C6.5268 4.50307 5.89203 3.97768 4.77558 4.06532ZM46.957 5.64147C48.5112 5.96984 49.6714 6.80163 50.4594 8.18056C51.1599 9.36268 51.51 10.7855 51.51 12.493C51.51 14.7477 50.9411 16.8053 49.8027 18.6876C48.4893 20.8768 46.782 21.9713 44.6587 21.9713C44.2864 21.9713 43.8926 21.9274 43.4766 21.8397C41.9226 21.5114 40.7622 20.6798 39.9741 19.3007C39.2737 18.0968 38.9236 16.652 38.9236 14.9664C38.9236 12.7118 39.4927 10.6542 40.6309 8.79358C41.9663 6.60461 43.6736 5.51013 45.7751 5.51013C46.1472 5.51013 46.5412 5.55405 46.957 5.64147ZM46.0378 17.4836C46.8476 16.7614 47.3948 15.6888 47.7014 14.244C47.7888 13.7406 47.8545 13.1935 47.8545 12.6244C47.8545 11.9894 47.7231 11.3109 47.4604 10.6322C47.1321 9.77868 46.6943 9.31876 46.1689 9.20958C45.3811 9.05627 44.615 9.49402 43.8926 10.5668C43.3015 11.3985 42.9292 12.274 42.7324 13.1715C42.6228 13.6749 42.5791 14.2223 42.5791 14.7694C42.5791 15.4042 42.7104 16.0829 42.9731 16.7614C43.3015 17.6151 43.7392 18.0748 44.2646 18.1842C44.8118 18.2936 45.4028 18.0529 46.0378 17.4836ZM36.7346 8.18056C35.9465 6.80163 34.7644 5.96984 33.2322 5.64147C32.8162 5.55384 32.4223 5.51013 32.05 5.51013C29.9487 5.51013 28.2414 6.60461 26.906 8.79379C25.7676 10.6542 25.1987 12.7118 25.1987 14.9664C25.1987 16.6522 25.5488 18.0968 26.2493 19.3007C27.0373 20.6798 28.1975 21.5114 29.7517 21.8397C30.1675 21.9274 30.5615 21.9711 30.9338 21.9711C33.0571 21.9711 34.7644 20.8768 36.0779 18.6876C37.2161 16.8053 37.7852 14.7475 37.7852 12.493C37.7852 10.7855 37.4348 9.36268 36.7346 8.18077V8.18056ZM33.9763 14.2442C33.6699 15.6891 33.1226 16.7616 32.3127 17.484C31.678 18.0531 31.0871 18.2938 30.5398 18.1846C30.0144 18.075 29.5764 17.6153 29.2483 16.7616C28.9856 16.0831 28.8542 15.4044 28.8542 14.7696C28.8542 14.2225 28.8979 13.6751 29.0075 13.1717C29.2043 12.2743 29.5764 11.3988 30.1675 10.567C30.8901 9.49423 31.6562 9.05648 32.4441 9.20958C32.9695 9.31917 33.4072 9.77889 33.7356 10.6324C33.9983 11.3111 34.1296 11.9898 34.1296 12.6246C34.1296 13.1935 34.0857 13.7408 33.9763 14.2442Z" fill="#AC67FF"/>
</g>
<defs>
<clipPath id="clip0_14_319">
<rect width="53.5425" height="32" fill="white" transform="translate(0.725403 0.212769)"/>
</clipPath>
</defs>
</svg>
